<svg version="1.1" id="Layer_1" xmlns="http://www.w3.org/2000/svg" xmlns:xlink="http://www.w3.org/1999/xlink" x="0px" y="0px"
	 width="100%" viewBox="0 0 1024 1024" enable-background="new 0 0 1024 1024" xml:space="preserve">
<path fill="#000000" opacity="1.000000" stroke="none" 
	d="
M560.235107,335.587524 
	C573.649536,342.458038 583.000061,352.282898 586.631042,366.895447 
	C587.970276,372.285339 588.216248,377.731262 587.199402,383.177765 
	C586.732849,385.676605 585.838867,388.211761 582.614807,388.212616 
	C579.783264,388.213379 579.322083,385.857727 578.732422,383.759583 
	C578.507874,382.960419 578.367310,382.137817 578.149048,381.336609 
	C570.855652,354.567383 542.678162,344.297729 519.585571,359.940582 
	C515.184021,362.922211 511.967743,366.835571 509.466370,371.450500 
	C507.720184,374.672180 506.099731,377.997314 504.015625,380.992737 
	C500.326508,386.295074 499.205872,391.740173 498.885254,398.405304 
	C498.441528,407.630493 497.304138,416.265289 502.061493,424.871796 
	C503.778351,427.977692 503.917206,432.250397 502.754547,436.122009 
	C501.813019,439.257172 503.768097,441.321838 506.017456,442.798279 
	C513.761963,447.881378 517.574097,455.565643 520.003418,464.010986 
	C520.991882,467.447205 522.806763,469.564514 525.906738,470.826630 
	C536.400757,475.099182 544.761230,481.314331 547.550598,493.163574 
	C548.349304,496.556305 551.688171,497.192078 554.742859,497.572449 
	C567.008911,499.099854 578.944702,512.080627 579.299255,524.584534 
	C579.432129,529.269165 581.198853,531.865784 586.031921,532.868530 
	C594.777344,534.683167 604.855347,547.796692 605.325073,557.374512 
	C605.390320,558.704895 605.482849,560.057068 605.327087,561.371216 
	C604.461121,568.676941 606.386719,574.109131 612.882690,578.840027 
	C621.518005,585.128845 624.210083,603.501831 618.579712,612.905518 
	C615.554016,617.958984 616.109863,621.462402 619.983215,625.726929 
	C627.383545,633.874756 627.486755,653.686890 620.695496,662.398865 
	C617.559326,666.421875 613.474792,668.961060 608.394165,669.193298 
	C576.531067,670.649048 545.609070,678.023499 514.470825,684.012634 
	C492.984528,688.145264 471.350647,690.525269 449.476959,689.191101 
	C439.880096,688.605835 430.271759,687.366455 421.044312,684.323303 
	C418.571106,683.507629 415.219757,682.986145 415.592865,679.530457 
	C415.983093,675.916443 419.356262,675.998047 422.201782,675.633423 
	C454.718384,671.465820 482.760559,659.195251 502.135254,631.314087 
	C512.110168,616.959717 517.293091,600.920959 517.533997,583.562927 
	C517.783142,565.609436 510.840240,549.830872 500.785553,535.310425 
	C490.821014,520.920166 478.976715,507.947571 469.143158,493.452545 
	C456.842957,475.321564 447.477234,455.935181 444.953400,433.916931 
	C439.018219,382.137695 470.766998,337.859497 517.222351,328.969177 
	C532.136780,326.114929 546.300537,329.096649 560.235107,335.587524 
M585.576050,633.745605 
	C579.392456,630.782349 575.005432,632.053650 571.771912,637.918640 
	C569.063171,642.831787 567.926208,648.143921 568.067688,653.764526 
	C568.166931,657.708557 570.072510,660.463867 573.531433,661.995117 
	C577.106689,663.577881 580.422363,662.437927 583.292908,660.095825 
	C589.048645,655.399780 592.802917,639.935608 585.576050,633.745605 
M576.882141,616.795471 
	C582.828064,618.397156 588.170044,616.252869 590.310120,610.609436 
	C592.666809,604.394470 592.649292,597.872925 590.143860,591.627441 
	C588.854858,588.414185 586.449890,585.720642 582.728088,585.798828 
	C578.781128,585.881531 575.926086,588.172119 574.430664,591.967957 
	C572.710632,596.333984 571.703857,600.908386 571.467590,605.532654 
	C571.251282,609.765747 572.326172,613.817139 576.882141,616.795471 
M569.856995,541.868896 
	C567.264648,542.701416 565.375427,544.593201 564.867310,547.043213 
	C563.210449,555.033936 564.365540,562.674744 569.748474,569.044922 
	C571.846558,571.527832 574.864319,573.453247 578.603455,572.108459 
	C582.120972,570.843262 583.825378,567.954041 584.389160,564.568787 
	C585.630432,557.115234 577.811401,544.491028 569.856995,541.868896 
M547.004028,520.424988 
	C549.707947,524.992737 553.086243,528.809570 558.639648,529.697754 
	C564.025513,530.559082 567.699646,526.389526 566.181274,521.135376 
	C564.902527,516.710571 562.394653,512.975525 558.492676,510.440948 
	C555.013245,508.180817 551.467102,503.987885 547.011719,507.155487 
	C542.021545,510.703186 545.011292,515.486755 547.004028,520.424988 
M616.912903,653.033936 
	C618.453918,646.947266 618.657471,640.841309 616.460449,634.904419 
	C615.304626,631.781006 613.184692,630.760071 610.405273,633.546753 
	C606.136292,637.826965 604.187622,650.595825 607.104248,655.672913 
	C608.721313,658.487732 610.815308,659.508789 613.528137,657.019836 
	C614.623474,656.014832 615.551941,654.828064 616.912903,653.033936 
M530.114014,492.149384 
	C522.721008,491.498901 520.632996,487.305939 523.855957,479.582336 
	C518.993408,477.082306 517.074768,478.171906 517.199646,483.367737 
	C517.367554,490.358612 521.288757,494.639954 527.323914,497.406677 
	C529.982300,498.625366 532.892273,499.840851 534.961426,496.914093 
	C537.054932,493.953064 536.065613,491.090790 533.270447,488.561340 
	C532.342102,489.820068 531.583496,490.848663 530.114014,492.149384 
M607.133728,589.700439 
	C608.724243,589.480408 610.233826,589.130493 609.596497,586.968811 
	C609.194519,585.605164 608.241760,584.663879 606.793152,584.474365 
	C605.141052,584.258301 604.499695,585.455261 603.945374,586.725281 
	C602.081970,590.994324 604.533936,604.677673 607.831238,608.143860 
	C610.031494,610.456787 611.907288,610.074524 613.200500,607.239014 
	C613.813904,605.893860 614.095886,604.407104 613.727539,602.891968 
	C608.104370,603.497131 604.594788,597.220337 607.133728,589.700439 
M501.295380,466.214691 
	C502.956909,467.276764 504.519043,468.569489 506.306366,469.339600 
	C508.307587,470.201874 509.954376,469.230286 510.502136,467.170929 
	C510.908722,465.642181 509.996765,464.786530 508.335876,464.598633 
	C501.895935,463.869965 500.424591,462.174103 500.480682,455.722992 
	C500.493103,454.295746 501.123901,452.334534 499.020691,452.153290 
	C496.915527,451.971893 496.399597,453.801422 496.392212,455.587524 
	C496.375641,459.593567 498.012573,462.919281 501.295380,466.214691 
M488.754883,401.317993 
	C488.521027,399.642181 489.625488,397.665985 487.684540,396.314514 
	C484.269135,402.431000 484.691132,405.625763 489.235626,408.214447 
	C492.146881,405.943665 488.797729,404.129150 488.754883,401.317993 
M488.129211,434.014008 
	C488.879089,435.066925 489.358673,436.628632 492.051086,435.667023 
	C487.384186,433.104218 491.511749,427.601074 487.274841,424.573029 
	C485.753540,428.048523 486.127319,430.757233 488.129211,434.014008 
z"/>
<path fill="#000000" opacity="1.000000" stroke="none" 
	d="
M399.780762,573.980835 
	C401.435272,575.658752 402.647614,575.424133 403.577484,573.699524 
	C408.329559,564.885681 412.897736,556.072449 412.895508,545.602112 
	C412.894409,540.315247 410.879944,537.074402 405.846802,535.561768 
	C402.811188,534.649414 399.160553,533.795166 399.941833,529.554871 
	C400.675018,525.575623 404.193359,524.723145 407.692902,524.699890 
	C418.688660,524.626892 429.685730,524.734497 440.681183,524.642883 
	C444.086060,524.614502 446.141846,526.230774 446.835846,529.309265 
	C447.560974,532.525696 445.486603,534.440125 442.704926,535.176880 
	C435.391571,537.113953 431.918823,542.415771 429.716705,549.077881 
	C425.787109,560.966187 421.036011,572.500549 414.106445,582.998596 
	C412.276764,585.770508 412.338989,588.073425 414.279785,590.714905 
	C419.595551,597.949768 425.810638,604.059326 434.235535,607.597778 
	C438.808411,609.518372 443.326233,610.591187 448.196320,608.290527 
	C450.465973,607.218262 453.156891,606.887573 455.060730,609.262451 
	C456.884308,611.537170 455.494263,613.699341 454.380646,615.733459 
	C445.977570,631.082764 429.318237,635.684692 413.692657,627.078796 
	C407.322662,623.570618 401.983643,618.792542 397.197113,613.460693 
	C394.063721,609.970215 391.896667,610.397583 388.587433,613.332397 
	C369.538208,630.226257 347.368439,636.214417 322.779938,629.500244 
	C288.662140,620.184082 275.622070,580.805298 296.527710,552.227905 
	C302.860840,543.570740 311.087799,537.192749 320.129364,531.755920 
	C326.386200,527.993591 326.528961,528.084290 322.087555,521.929199 
	C316.963043,514.827454 312.772003,507.240417 311.231079,498.573120 
	C306.511047,472.024261 323.013611,452.657745 346.741455,448.608124 
	C357.082489,446.843231 366.987396,448.432983 376.524414,452.294281 
	C394.450623,459.552124 401.442535,478.190338 393.100586,495.617157 
	C388.007477,506.256897 379.217926,513.323669 369.922638,519.908936 
	C361.003448,526.227783 359.970215,525.325317 367.629150,534.661682 
	C378.297577,547.666687 388.910339,560.717407 399.780762,573.980835 
M315.877350,579.887024 
	C318.530090,597.471375 328.100281,607.674133 345.323395,611.208435 
	C357.660889,613.740051 378.651947,606.418701 383.011688,597.344360 
	C367.112274,579.629578 352.320435,560.785156 336.896851,542.466187 
	C334.768494,539.938293 333.120972,541.211243 331.488190,542.748474 
	C321.035095,552.590027 315.614563,564.649902 315.877350,579.887024 
M343.832275,503.626587 
	C345.979095,506.372498 348.138489,509.108704 350.267914,511.868042 
	C351.484314,513.444336 352.722656,513.598450 354.545013,512.614746 
	C365.453918,506.725983 374.203186,489.953613 372.657013,477.639282 
	C371.643097,469.564056 363.527374,462.893799 354.158997,462.436005 
	C345.916656,462.033264 339.246826,467.430969 337.242950,475.674927 
	C334.761230,485.884949 338.402679,494.577881 343.832275,503.626587 
z"/>
<path fill="#000000" opacity="1.000000" stroke="none" 
	d="
M642.408508,732.389954 
	C639.911621,727.460266 640.708313,724.916931 645.604370,724.211731 
	C657.286194,722.529175 669.067383,721.559082 680.883667,721.575867 
	C684.266846,721.580627 685.989441,725.593811 683.303528,728.172913 
	C677.805359,733.452148 679.926819,738.417542 682.318298,743.983948 
	C688.691406,758.817749 694.797424,773.766113 701.038452,788.656860 
	C701.737427,790.324768 702.620972,791.915283 704.094788,794.919312 
	C706.109680,784.064636 707.867798,774.593567 709.625793,765.122498 
	C709.898254,763.654297 709.944946,762.097961 710.478760,760.731934 
	C714.519714,750.390503 710.560181,741.653015 705.103760,733.195374 
	C703.552612,730.790894 701.701233,728.712952 699.130066,727.290710 
	C696.866821,726.038696 695.796021,723.848389 696.259460,721.399536 
	C696.716919,718.982239 698.889771,718.098694 701.133423,717.763184 
	C710.160889,716.413269 719.190796,715.076538 728.231079,713.816223 
	C730.572021,713.489990 732.997131,713.438843 734.474243,715.844421 
	C736.186951,718.633667 733.909851,720.154663 732.360657,721.775208 
	C730.271729,723.960449 729.694885,726.367554 730.988342,729.083496 
	C739.722656,747.423828 748.485596,765.750610 757.268982,784.067505 
	C757.452026,784.449097 757.991760,784.659607 758.668213,785.185669 
	C761.348877,779.610229 760.637146,773.701599 761.223572,768.103210 
	C762.677002,754.228577 763.516846,740.290527 764.689331,726.385254 
	C765.116150,721.322449 763.947266,717.533813 758.328979,716.219849 
	C755.934875,715.659912 754.876038,713.589844 755.013855,711.233154 
	C755.149353,708.916077 756.877808,707.738098 758.970825,707.321655 
	C766.946045,705.734436 774.926636,704.165588 782.934265,702.754700 
	C785.139465,702.366211 787.289307,702.830139 788.294312,705.346313 
	C789.177917,707.558533 788.377930,709.313049 786.715088,710.673401 
	C781.736633,714.746155 780.765503,720.362793 780.322571,726.304321 
	C779.013550,743.865601 776.996643,761.355652 774.687012,778.809692 
	C773.054810,791.144409 771.147034,803.443237 769.585693,815.786377 
	C768.993896,820.465271 766.088196,822.294800 762.065613,823.190918 
	C760.446716,823.551636 758.784546,823.713623 757.149414,824.006714 
	C751.156067,825.081055 748.565613,824.007385 745.885071,818.391846 
	C739.359253,804.720703 733.045471,790.948364 726.645020,777.217346 
	C726.094116,776.035522 725.533936,774.858032 724.413330,772.480286 
	C722.560974,781.317566 720.958252,788.986450 719.345276,796.653198 
	C717.465515,805.588196 715.749023,814.562317 713.635803,823.441895 
	C712.030029,830.189392 709.539673,831.823914 701.768433,832.348328 
	C693.815430,832.885071 692.159302,832.041382 689.309631,825.392334 
	C678.030334,799.074646 666.752625,772.755981 655.599670,746.384705 
	C652.954773,740.130859 649.282471,735.086914 642.408508,732.389954 
z"/>
<path fill="#000000" opacity="1.000000" stroke="none" 
	d="
M415.379791,756.304321 
	C414.197327,769.493469 413.045410,782.224182 411.854523,794.951355 
	C411.050385,803.545410 410.287567,812.145203 409.318420,820.721191 
	C408.794495,825.357422 410.468170,828.794067 414.078979,831.523804 
	C416.306183,833.207642 418.323853,835.278076 416.842224,838.251709 
	C415.447968,841.050049 412.428589,841.168152 409.806763,840.786621 
	C399.915985,839.347290 389.924347,839.285889 379.996918,838.383301 
	C377.798767,838.183472 376.103149,837.575684 375.360352,835.346008 
	C374.579010,833.000610 375.134521,830.647034 377.156921,829.607361 
	C385.228210,825.458313 385.894501,818.406677 385.803223,810.494995 
	C385.726898,803.879089 386.551605,797.228516 387.344513,790.637451 
	C387.724426,787.479431 386.716705,786.526306 383.725555,786.250122 
	C375.133026,785.456848 366.562866,784.418274 357.986816,783.450684 
	C355.138184,783.129211 353.687256,784.201538 353.334686,787.194275 
	C352.150787,797.243042 350.823242,807.275269 349.498291,817.306946 
	C348.982513,821.212097 351.635712,823.373474 353.918396,825.773865 
	C355.859650,827.815430 358.395691,829.773254 356.662567,833.045349 
	C355.080841,836.031616 352.326233,835.987915 349.276947,835.603577 
	C339.562256,834.379272 329.819275,833.372803 320.078613,832.365295 
	C317.013336,832.048218 314.484314,831.098633 313.799255,827.767273 
	C313.153687,824.627686 315.337921,823.220276 317.758667,822.251221 
	C323.504364,819.951111 325.173340,815.402344 325.732361,809.636475 
	C326.964752,796.925537 328.631592,784.255981 330.175995,771.576172 
	C331.600250,759.882996 333.169952,748.206970 334.515015,736.505005 
	C334.913788,733.035583 332.872955,730.548828 330.225067,728.525574 
	C328.021179,726.841797 326.917572,724.630615 328.148102,721.977234 
	C329.350739,719.383789 331.898254,719.448792 334.244415,719.753357 
	C343.786194,720.992004 353.312531,722.349121 362.851807,723.607483 
	C365.500763,723.957031 367.800171,724.625854 368.252594,727.747803 
	C368.667938,730.614075 366.841278,732.116455 364.617889,733.066895 
	C360.538727,734.810730 358.441315,737.626953 358.050781,742.168396 
	C357.397552,749.763977 356.297211,757.320923 355.402252,764.896118 
	C355.110870,767.362488 355.792297,769.327515 358.608002,769.526978 
	C367.391754,770.149109 376.089142,771.762756 384.933868,771.721252 
	C387.497650,771.709229 389.280548,770.857666 389.460999,768.216187 
	C390.049530,759.601868 391.918579,751.107727 391.722595,742.414001 
	C391.650330,739.209229 390.186310,737.127563 387.698059,735.418457 
	C385.675873,734.029419 384.131958,732.219421 384.907654,729.550049 
	C385.725677,726.735046 388.128265,726.397949 390.555664,726.570435 
	C400.664795,727.288635 410.776367,727.997681 420.868256,728.916138 
	C423.123932,729.121460 425.649017,729.789612 426.150757,732.679810 
	C426.637878,735.485901 424.829315,737.027100 422.610382,738.071167 
	C417.968658,740.255371 416.110199,743.888794 416.253235,748.931030 
	C416.318298,751.225525 415.701355,753.539307 415.379791,756.304321 
z"/>
<path fill="#000000" opacity="1.000000" stroke="none" 
	d="
M531.859741,842.382080 
	C523.739136,844.128784 515.898926,843.633484 508.151154,843.279053 
	C502.878784,843.037781 499.952179,838.601868 497.453705,834.373108 
	C492.680389,826.293945 490.149597,817.264648 486.709717,808.620483 
	C485.664612,805.994385 484.725342,803.315247 483.502838,800.773254 
	C481.713074,797.051880 478.248871,797.003479 474.868164,797.478699 
	C470.998383,798.022644 472.389801,801.274475 472.341980,803.484070 
	C472.194183,810.309937 472.402039,817.142944 472.297394,823.970520 
	C472.225708,828.650818 473.888123,831.981750 478.460052,833.703613 
	C480.770813,834.573792 483.488922,835.514038 482.882477,838.807861 
	C482.291107,842.019592 479.379120,843.223938 476.821899,843.010437 
	C465.515839,842.066345 454.185425,842.782593 442.890411,842.126404 
	C440.463470,841.985474 438.427063,840.711609 437.834686,838.023743 
	C437.205505,835.169067 438.918121,833.741943 441.161560,832.604797 
	C444.881409,830.719421 446.805328,827.877319 446.901001,823.486450 
	C447.390411,801.029297 448.088654,778.576904 448.655853,756.121338 
	C448.831696,749.160217 448.224518,742.436035 442.211121,737.548523 
	C440.864807,736.454346 440.317780,734.807678 440.982666,733.016357 
	C441.648926,731.221313 443.144958,730.345093 444.878418,730.397278 
	C462.986084,730.942627 481.200043,730.147705 499.155945,732.752502 
	C511.317139,734.516724 520.618225,741.253235 523.928223,753.770325 
	C527.498474,767.271545 523.110596,778.699219 513.120422,788.057068 
	C507.047211,793.745911 506.937073,793.619324 510.518372,801.402710 
	C512.744873,806.241760 515.132324,811.017090 517.123291,815.951843 
	C520.208740,823.599426 524.859375,829.780823 531.925659,834.250488 
	C536.301514,837.018433 536.171936,838.595215 531.859741,842.382080 
M473.476898,752.005981 
	C473.285095,760.964294 473.499176,769.935486 472.396545,778.863403 
	C472.181458,780.605164 472.034424,782.544006 474.338531,783.460327 
	C481.858124,786.450867 492.816589,782.336121 496.236328,774.993958 
	C499.454102,768.085388 499.478760,760.827881 497.725128,753.574890 
	C496.590515,748.882019 493.294373,745.823303 488.932007,744.035828 
	C479.379181,740.121582 474.700409,742.323486 473.476898,752.005981 
z"/>
<path fill="#000000" opacity="1.000000" stroke="none" 
	d="
M408.624817,246.520477 
	C411.672760,263.260437 414.630127,279.579498 417.496246,295.914551 
	C418.465088,301.436279 416.583618,303.644104 411.208496,305.221527 
	C403.773621,307.403412 398.349579,305.709076 393.440277,299.348083 
	C379.505127,281.292236 365.074860,263.618256 350.815216,245.813354 
	C349.258331,243.869461 347.543488,242.052078 344.827911,238.948578 
	C346.226776,246.370880 347.311737,252.382721 348.499298,258.374237 
	C350.757141,269.765045 353.164307,281.127075 355.325836,292.535828 
	C356.345886,297.919891 358.339874,302.331696 363.852570,304.464600 
	C365.995544,305.293732 367.492065,306.910889 367.191437,309.466766 
	C366.900726,311.938049 365.137878,313.470612 362.993835,313.920563 
	C355.361389,315.522247 347.698517,317.037750 339.987091,318.180054 
	C335.980713,318.773529 334.106720,315.862915 335.738678,312.173309 
	C336.266083,310.980927 337.091064,309.882538 337.940948,308.877289 
	C340.910736,305.364532 341.911377,301.707275 340.918945,296.922546 
	C335.965088,273.038544 331.329010,249.087921 326.704193,225.136963 
	C325.778534,220.343216 323.907593,216.696167 318.813385,215.350525 
	C316.366699,214.704208 314.623016,213.125488 314.789886,210.355301 
	C314.963867,207.465744 316.829498,205.759506 319.514832,205.295914 
	C327.031311,203.998230 334.563660,202.763580 342.123779,201.760239 
	C345.808289,201.271225 348.352875,203.679581 350.618591,206.219986 
	C362.596924,219.650528 373.257355,234.160355 384.792297,247.952499 
	C387.621429,251.335236 389.831268,255.355530 394.063080,257.994263 
	C395.562378,254.396164 394.210846,251.231155 393.643677,248.114319 
	C391.416473,235.875076 389.003723,223.669556 386.780945,211.429550 
	C385.997711,207.116684 383.838531,204.081039 379.734070,202.505875 
	C377.129395,201.506287 375.458130,199.850891 375.891357,196.869675 
	C376.312653,193.970474 378.794952,193.286514 381.041809,192.908691 
	C388.080688,191.725067 395.157532,190.761917 402.229126,189.781570 
	C404.498901,189.466919 406.707825,189.890594 407.839844,192.108749 
	C408.949707,194.283539 408.331665,196.402359 406.498810,197.961029 
	C400.992249,202.643906 401.314392,208.416550 402.671844,214.788116 
	C404.883667,225.169937 406.583008,235.660934 408.624817,246.520477 
z"/>
<path fill="#000000" opacity="1.000000" stroke="none" 
	d="
M619.715393,835.887695 
	C597.451782,847.863098 572.148865,844.798279 556.351196,828.336975 
	C548.959717,820.634888 545.180908,811.146912 543.298706,800.796143 
	C540.354858,784.606750 540.722168,768.663513 547.567444,753.410645 
	C556.038147,734.535828 571.216858,725.472107 591.491699,725.430725 
	C612.081177,725.388672 627.920715,734.422119 636.688782,753.392822 
	C644.697021,770.719604 645.554077,789.048096 640.856506,807.480164 
	C637.771240,819.585815 630.664673,829.014587 619.715393,835.887695 
M615.518616,779.992859 
	C615.234009,778.022827 614.949341,776.052856 614.664795,774.082825 
	C613.452759,765.692322 612.278259,757.285950 607.781860,749.833740 
	C604.026917,743.610352 598.770142,739.637085 591.275696,739.379639 
	C581.692383,739.050537 574.474487,745.527405 571.478882,757.086182 
	C568.473206,768.683960 568.791077,780.537109 569.661865,792.285461 
	C570.307373,800.993835 571.096680,809.839050 575.126099,817.932251 
	C579.722961,827.165100 588.952148,831.471924 598.829041,828.580566 
	C607.505676,826.040527 611.210510,819.110840 613.567993,811.135254 
	C616.500610,801.213928 615.586304,791.033142 615.518616,779.992859 
z"/>
<path fill="#000000" opacity="1.000000" stroke="none" 
	d="
M563.618896,292.841217 
	C568.722412,290.074280 570.059509,286.488617 568.799683,281.012543 
	C566.392273,270.548492 566.670593,270.621826 556.204468,268.988678 
	C551.546753,268.261902 546.903625,268.467072 542.253906,268.282379 
	C541.128662,268.237671 539.813049,268.327454 538.881042,268.866943 
	C534.435547,271.440125 532.582458,285.950836 536.188599,289.610626 
	C538.193054,291.644897 540.709778,293.537140 539.165771,296.823944 
	C537.766113,299.803436 534.770264,299.369507 532.132996,299.357391 
	C525.635498,299.327484 519.137146,299.285248 512.641541,299.139709 
	C509.938110,299.079163 507.026978,298.788330 505.997498,295.753510 
	C504.898712,292.514221 506.987701,290.366821 509.420654,288.694733 
	C514.298889,285.342133 517.103210,280.770569 518.993835,275.146210 
	C526.891785,251.649994 535.093689,228.255737 543.227295,204.839111 
	C544.832336,200.218155 545.333069,196.044556 541.805725,191.764084 
	C539.179199,188.576797 541.053040,185.091660 545.238403,184.754745 
	C553.908020,184.056915 562.528076,185.307968 571.156494,185.867462 
	C574.322327,186.072754 575.837708,188.388184 576.382751,191.619263 
	C581.653015,222.865356 587.919067,253.922165 594.149719,284.987213 
	C594.931274,288.883911 596.577393,291.789062 599.580750,294.115845 
	C601.746704,295.793915 603.042786,297.899628 601.969666,300.608551 
	C600.932800,303.225739 598.427124,303.420227 596.042358,303.276154 
	C586.250427,302.684540 576.455444,302.113098 566.677490,301.334167 
	C561.937195,300.956543 560.878296,298.091827 563.618896,292.841217 
M549.778809,231.107224 
	C548.688782,234.243881 547.616333,237.386765 546.505737,240.516129 
	C541.718689,254.005096 542.710938,255.194763 557.490417,254.705658 
	C561.418823,254.575668 563.126831,252.896164 562.591248,249.203171 
	C561.831238,243.962540 560.798218,238.760147 559.822449,233.552567 
	C558.831543,228.264267 558.235718,222.860184 555.926147,217.689331 
	C555.080872,218.207413 554.437012,218.367096 554.304260,218.719330 
	C552.847473,222.587646 551.470276,226.485962 549.778809,231.107224 
z"/>
<path fill="#000000" opacity="1.000000" stroke="none" 
	d="
M774.174377,346.971497 
	C771.655518,345.962463 769.412170,345.263245 767.349731,344.209808 
	C765.291138,343.158295 764.056458,341.330933 764.381592,338.897552 
	C764.705261,336.474579 766.192871,335.008850 768.645508,334.696289 
	C773.689514,334.053497 776.670044,330.890533 778.472778,326.481659 
	C787.919373,303.378784 797.306580,280.251678 806.713135,257.132416 
	C808.111816,253.694809 808.288635,250.400635 805.902222,247.221329 
	C804.134155,244.865936 803.749146,242.191116 805.814453,239.890030 
	C807.684937,237.806015 810.083557,238.646637 812.295532,239.573074 
	C830.872314,247.353455 849.438416,255.159348 868.028564,262.907654 
	C871.731812,264.451141 873.292114,266.955994 871.802856,270.796295 
	C869.637451,276.380463 867.348938,281.919098 864.997559,287.427887 
	C864.038208,289.675507 862.491150,291.614288 859.693176,291.027344 
	C856.864746,290.433960 855.610107,288.340271 855.671204,285.492828 
	C855.860291,276.680176 851.377197,271.300079 843.455383,268.012360 
	C830.053955,262.450531 832.849365,260.689911 826.956055,274.440735 
	C824.793640,279.486206 822.831482,284.620819 820.551697,289.611389 
	C819.225220,292.515350 819.244568,294.247620 822.576050,295.878662 
	C827.873230,298.472076 832.573975,300.279663 837.257141,294.713257 
	C838.902344,292.757782 841.583984,293.371857 843.675110,294.840637 
	C845.658325,296.233673 845.698059,298.256683 844.866028,300.215454 
	C841.938354,307.108002 838.902893,313.954865 835.891785,320.811890 
	C834.845764,323.194122 832.914490,323.798309 830.535095,323.295990 
	C828.021057,322.765259 827.141602,320.870605 826.750000,318.596527 
	C825.825073,313.227081 821.200806,309.061005 815.804016,308.568024 
	C813.623291,308.368866 812.859009,309.840027 812.166809,311.345917 
	C808.065430,320.268585 804.196411,329.286926 800.855957,338.530914 
	C799.973267,340.973450 800.922119,342.359283 802.865540,343.449646 
	C812.954651,349.109985 822.451233,351.931244 833.393494,343.121643 
	C834.798218,341.990662 836.487427,341.180542 838.120056,340.374023 
	C839.876465,339.506378 841.355042,340.298920 842.629578,341.522888 
	C843.917053,342.759186 844.702148,344.210480 843.805542,345.988281 
	C840.359497,352.820496 837.081726,359.750275 833.320190,366.405762 
	C831.046936,370.427887 827.322449,369.769562 823.652771,368.110138 
	C807.425293,360.772217 791.163086,353.513367 774.174377,346.971497 
z"/>
<path fill="#000000" opacity="1.000000" stroke="none" 
	d="
M297.371277,275.813416 
	C297.849731,277.475861 298.156189,278.781342 298.655273,280.008545 
	C299.609070,282.353821 299.250305,284.327301 297.006439,285.603943 
	C294.759674,286.882263 292.633728,286.595642 290.589417,284.842468 
	C285.743164,280.686340 280.519257,280.404968 275.317169,283.784729 
	C273.716248,284.824829 272.952667,286.222290 273.505066,288.020081 
	C276.385010,297.392761 279.340088,306.742340 282.273254,316.098633 
	C282.714691,317.506744 282.971771,319.006958 284.497620,320.408844 
	C293.884033,317.439575 304.356232,316.094788 309.006592,305.062775 
	C309.985535,302.740417 310.610596,300.382233 310.801086,297.849121 
	C311.036743,294.716095 312.639008,292.423065 315.909271,291.960541 
	C319.435059,291.461914 320.406982,294.143341 321.180481,296.785339 
	C322.813446,302.363251 324.543640,307.920258 325.934113,313.559753 
	C327.725800,320.826294 326.496368,322.622009 319.399048,324.625641 
	C301.151794,329.776978 283.072479,335.466339 265.175720,341.731842 
	C263.920013,342.171448 262.658600,342.599884 261.382874,342.975891 
	C259.272278,343.597900 257.443085,343.239777 256.055786,341.371613 
	C254.717377,339.569275 254.352295,337.618713 255.849228,335.865326 
	C260.894958,329.955017 259.606232,323.899811 257.389923,317.171783 
	C250.160889,295.226440 243.405792,273.124298 236.553589,251.056046 
	C235.292084,246.993240 233.544846,243.776718 228.862198,242.910065 
	C226.305099,242.436798 224.035324,240.942886 224.079941,237.946503 
	C224.124146,234.976700 226.526260,233.695648 228.944626,232.907242 
	C243.642792,228.115494 258.361877,223.387314 273.092529,218.696136 
	C277.842224,217.183502 282.650757,215.856049 287.427094,214.426254 
	C290.599091,213.476715 292.559662,214.637909 293.511230,217.763626 
	C295.350464,223.805084 297.303833,229.813049 299.050476,235.880768 
	C299.667145,238.023163 299.609772,240.233795 297.255981,241.573318 
	C294.813446,242.963379 292.772430,242.160187 290.956879,240.362976 
	C289.655334,239.074600 288.465790,237.669891 287.130157,236.419739 
	C283.336823,232.869125 278.989929,231.613678 273.805573,232.858978 
	C257.507019,236.773972 257.504059,236.715408 262.504822,252.285706 
	C263.927673,256.715881 265.421326,261.131958 266.605652,265.627411 
	C267.604004,269.416962 269.197601,270.611908 273.355103,269.430298 
	C278.755219,267.895508 282.346771,265.479675 282.726105,259.470886 
	C282.888214,256.903198 284.776642,255.922623 287.178253,255.592194 
	C289.804749,255.230820 291.334259,256.425720 292.082336,258.765045 
	C293.854065,264.305237 295.556061,269.867645 297.371277,275.813416 
z"/>
<path fill="#000000" opacity="1.000000" stroke="none" 
	d="
M643.622192,229.566681 
	C637.151062,244.160339 634.396973,259.044342 635.331787,274.627625 
	C636.149536,288.259003 645.777466,297.750519 658.021851,296.599304 
	C664.949219,295.948029 669.833191,291.436432 674.390259,286.797302 
	C676.695435,284.450653 678.889771,282.323456 682.036011,284.335938 
	C685.480103,286.538971 684.272644,289.854095 682.965149,292.852570 
	C677.100403,306.302094 659.668823,314.977661 644.592773,311.983826 
	C625.704224,308.232880 613.200623,295.425018 609.912415,275.430817 
	C606.472351,254.513351 609.794495,234.635147 621.131226,216.467270 
	C628.349243,204.899948 638.446777,197.164749 652.190491,195.068466 
	C662.524658,193.492233 671.837402,197.463104 681.115845,201.180328 
	C684.871277,202.684875 688.040955,204.850967 692.805054,203.642517 
	C696.897156,202.604507 697.781494,206.684433 697.237854,210.112625 
	C696.301025,216.020233 695.050964,221.877594 693.992371,227.766815 
	C693.670105,229.559860 693.416687,231.384186 693.357788,233.201523 
	C693.252441,236.450638 691.634949,238.113358 688.447815,238.298355 
	C685.286133,238.481888 683.305481,236.989777 682.827271,233.872849 
	C682.217224,229.896622 681.062256,226.080414 679.658630,222.344208 
	C675.035889,210.039261 660.122131,207.174744 651.287537,216.889252 
	C647.999878,220.504440 645.830078,224.835922 643.622192,229.566681 
z"/>
<path fill="#000000" opacity="1.000000" stroke="none" 
	d="
M480.748169,227.471222 
	C481.534637,244.226303 482.341583,260.517578 482.837433,276.818298 
	C483.002136,282.231964 483.970032,286.595215 489.725922,288.752167 
	C492.762177,289.890015 493.700592,292.623596 492.828735,295.795929 
	C492.003448,298.798828 489.853790,299.142883 487.031525,299.166046 
	C477.380493,299.245117 467.731995,299.642761 458.082794,299.928650 
	C455.007324,300.019745 451.732178,300.041016 450.315979,296.762573 
	C448.972534,293.652496 451.044434,291.374176 453.364838,289.548920 
	C459.633301,284.618134 458.031342,277.626038 457.378448,271.451080 
	C456.325226,261.490234 456.784393,251.507034 455.892365,241.545578 
	C454.854889,229.960236 455.000732,218.268448 454.649475,206.622345 
	C454.463013,200.440933 451.716248,198.622147 445.900391,200.958588 
	C443.061066,202.099274 440.616364,203.871490 438.964813,206.479126 
	C437.365112,209.004929 435.901459,211.625275 434.516785,214.276566 
	C433.112244,216.965897 432.017426,220.031601 428.059814,219.183975 
	C424.062592,218.327881 423.551392,215.186005 423.677612,211.837082 
	C423.940369,204.863785 423.001740,197.856262 424.411285,190.910233 
	C425.003418,187.992218 426.505310,186.747131 429.528412,186.620651 
	C453.294830,185.626389 477.032532,183.936432 500.828247,183.658051 
	C508.447876,183.568893 508.473206,183.632538 509.400848,191.219803 
	C510.085327,196.818130 510.745239,202.420456 511.316467,208.031158 
	C511.588287,210.701233 510.981964,213.118896 508.063751,214.055496 
	C505.102539,215.005905 502.898010,213.793777 501.256927,211.288239 
	C500.162354,209.617111 499.004578,207.987442 497.879822,206.335983 
	C495.856262,203.364883 493.278351,201.084152 489.831451,199.897995 
	C482.929901,197.523010 480.275360,199.328217 480.308502,206.537613 
	C480.339874,213.362488 480.528137,220.186646 480.748169,227.471222 
z"/>
<path fill="#000000" opacity="1.000000" stroke="none" 
	d="
M208.742004,364.896912 
	C206.890015,365.763641 205.372787,366.450348 203.862595,367.152222 
	C201.771179,368.124115 199.716599,368.548950 197.924576,366.596161 
	C196.231018,364.750641 196.122559,362.411163 197.325775,360.558472 
	C201.178482,354.626221 199.142715,349.214935 196.660522,343.536560 
	C187.660965,322.948883 178.849808,302.278900 169.931976,281.655365 
	C166.816467,274.450348 162.823792,273.867554 157.457260,279.761139 
	C153.933655,283.630798 153.706070,288.518188 153.420822,293.339935 
	C153.263367,296.001282 153.804245,298.935883 150.089554,299.593018 
	C146.663193,300.199219 145.427032,297.666779 144.235413,295.240326 
	C141.593018,289.859802 138.987900,284.460632 136.410812,279.048492 
	C134.515274,275.067627 135.207657,272.360657 139.632568,270.306976 
	C160.936691,260.419434 182.806458,251.873535 204.378357,242.624847 
	C208.366547,240.914963 210.980347,241.673737 212.751495,245.784943 
	C215.122192,251.287811 217.744263,256.682556 220.269028,262.118805 
	C221.421936,264.601227 221.658646,266.846069 219.166214,268.793945 
	C216.714981,270.709625 214.518158,270.005402 212.317093,268.464233 
	C210.816589,267.413605 209.320908,266.351501 207.877853,265.224396 
	C204.981674,262.962311 201.719543,262.093842 198.069244,262.279236 
	C190.838959,262.646454 189.407730,264.664917 192.115479,271.133301 
	C200.983765,292.318146 209.863861,313.498230 218.813385,334.648804 
	C221.119232,340.098206 223.690109,345.154388 230.784866,345.947815 
	C234.447647,346.357422 235.315231,350.409393 232.854111,353.279785 
	C231.609436,354.731445 229.876282,355.365601 228.207367,356.115906 
	C221.830444,358.982697 215.455566,361.854034 208.742004,364.896912 
z"/>
<path fill="#000000" opacity="1.000000" stroke="none" 
	d="
M296.481445,714.332581 
	C301.301788,715.233582 305.730743,715.922546 310.119171,716.811584 
	C313.284515,717.453003 315.082001,719.175842 314.514984,722.808899 
	C313.594452,728.707214 312.995026,734.655762 312.065186,740.552307 
	C311.625916,743.338013 310.250671,745.671082 306.998108,745.836670 
	C303.685364,746.005188 301.679688,744.260010 300.956390,741.081726 
	C299.518585,734.763428 296.726562,729.536438 290.153442,727.226074 
	C285.019043,725.421387 283.624786,725.977661 282.420013,731.392456 
	C279.285156,745.482300 276.343597,759.615540 273.388489,773.744751 
	C271.521210,782.672913 269.882599,791.650024 267.923920,800.557373 
	C266.594299,806.603882 266.449097,812.109131 272.119202,816.253235 
	C273.683258,817.396362 274.471954,819.059021 273.421906,821.080322 
	C272.108093,823.609253 269.967468,824.748840 267.242737,824.266357 
	C262.671783,823.456787 258.153473,822.355042 253.596756,821.458862 
	C248.062881,820.370667 242.510590,819.376282 236.969452,818.324524 
	C234.654099,817.885010 232.953110,816.807983 232.703156,814.189026 
	C232.470123,811.747253 233.320969,809.842590 235.626709,808.965210 
	C241.081177,806.889648 243.319183,802.678528 244.366608,797.221497 
	C248.960388,773.287842 253.694107,749.380859 258.452606,725.479187 
	C259.178711,721.832092 257.592773,720.068726 254.263916,719.580933 
	C249.190140,718.837402 245.249649,721.267273 241.717346,724.504944 
	C240.003632,726.075745 238.535568,727.914185 236.824631,729.488342 
	C234.986984,731.179016 232.724182,732.023865 230.424728,730.680054 
	C228.171494,729.363220 227.541824,727.050293 228.221252,724.589600 
	C229.989182,718.186768 231.810165,711.796753 233.745514,705.442932 
	C234.607834,702.611877 236.517212,701.780945 239.565567,702.431335 
	C258.382080,706.446228 277.233124,710.299316 296.481445,714.332581 
z"/>
<path fill="#000000" opacity="1.000000" stroke="none" 
	d="
M707.726990,324.415039 
	C702.039490,322.905945 696.718323,321.579681 691.468689,320.013489 
	C689.114685,319.311188 686.567749,318.494507 686.464844,315.253265 
	C686.360657,311.971130 688.364258,310.544128 691.164429,309.700470 
	C695.526978,308.386108 698.083740,305.324890 699.366943,301.052399 
	C706.488892,277.339905 713.580872,253.618240 720.786743,229.931244 
	C722.093262,225.636383 722.101257,221.837662 718.874451,218.332291 
	C717.174805,216.485901 716.584961,214.166794 718.110229,211.915146 
	C719.710632,209.552612 721.995605,209.929413 724.383667,210.653381 
	C733.448730,213.401596 742.547607,216.038147 751.614380,218.780884 
	C753.875488,219.464890 756.166199,220.357391 756.252319,223.278442 
	C756.340637,226.271286 754.492859,227.790054 751.836365,228.516068 
	C747.605530,229.672348 745.762573,232.946457 744.625916,236.747116 
	C737.436951,260.785553 730.362610,284.858673 723.045715,308.857910 
	C721.987915,312.327515 723.016479,313.588318 726.091064,314.709351 
	C736.856689,318.634644 746.323059,317.374054 754.188171,308.435608 
	C756.070679,306.296143 758.081848,304.252594 761.478821,305.554718 
	C764.395874,306.672852 765.966309,308.315399 764.777710,311.611908 
	C762.183777,318.806274 759.628845,326.014679 757.046448,333.213196 
	C755.655334,337.091156 752.957886,338.093048 749.130615,336.924377 
	C735.470276,332.753204 721.793213,328.637054 707.726990,324.415039 
z"/>
<path fill="#000000" opacity="1.000000" stroke="none" 
	d="
M581.079895,654.230957 
	C577.743774,656.137268 575.757507,654.644165 574.999756,651.969727 
	C573.968628,648.330627 574.758911,644.731750 577.004578,641.598633 
	C578.044556,640.147705 579.540955,639.443665 581.344788,639.842957 
	C583.220215,640.258118 584.070007,641.661072 584.214600,643.443420 
	C584.525757,647.276672 584.764465,651.124634 581.079895,654.230957 
z"/>
<path fill="#000000" opacity="1.000000" stroke="none" 
	d="
M586.209961,606.889160 
	C585.169373,609.238464 583.858337,610.642456 581.460083,610.175110 
	C579.047729,609.704834 578.509094,607.622986 578.045898,605.710510 
	C577.146301,601.996643 577.711853,598.438293 579.827454,595.209045 
	C580.718018,593.849731 582.086060,593.190979 583.682129,593.426086 
	C585.184998,593.647400 585.823303,594.873779 586.188110,596.217163 
	C587.113831,599.626709 587.651306,603.045715 586.209961,606.889160 
z"/>
<path fill="#000000" opacity="1.000000" stroke="none" 
	d="
M573.343140,563.466187 
	C570.784363,560.188660 569.643372,556.734985 569.767578,553.001160 
	C569.894287,549.192993 572.898987,547.606262 575.890747,549.546936 
	C578.838074,551.458740 581.024292,557.915283 579.726440,561.183716 
	C578.588806,564.048706 576.833191,565.718140 573.343140,563.466187 
z"/>
<path fill="#000000" opacity="1.000000" stroke="none" 
	d="
M550.772705,516.135864 
	C550.610779,513.979797 550.057190,511.964874 552.306152,511.059570 
	C554.312805,510.251831 555.851257,511.425262 557.148682,512.735474 
	C558.735291,514.337708 560.949524,515.419128 561.450317,517.971558 
	C561.814087,519.825745 562.211914,521.719604 560.329712,522.885681 
	C558.637512,523.934082 556.843567,523.619446 555.253357,522.379761 
	C553.251160,520.818848 551.770813,518.868896 550.772705,516.135864 
z"/>
<path fill="#000000" opacity="1.000000" stroke="none" 
	d="
M611.993347,651.551270 
	C608.719666,647.596558 609.402222,642.533386 613.285095,639.127380 
	C617.613770,643.371948 617.260315,648.171814 611.993347,651.551270 
z"/>
</svg>